<svg version="1.1" viewBox="0.0 0.0 751.0 721.0" fill="none" stroke="none" stroke-linecap="square" stroke-miterlimit="10" xmlns:xlink="http://www.w3.org/1999/xlink" xmlns="http://www.w3.org/2000/svg"><clipPath id="p.0"><path d="m0 0l751.0 0l0 721.0l-751.0 0l0 -721.0z" clip-rule="nonzero"/></clipPath><g clip-path="url(#p.0)"><path fill="#000000" fill-opacity="0.0" d="m0 0l751.0 0l0 721.0l-751.0 0z" fill-rule="evenodd"/><path fill="#ffffff" d="m293.10345 75.89556l0 191.6253l-50.271576 74.93967l-168.82803 97.710175c-4.757225 -22.770538 -7.5901794 -45.541077 -7.5901794 -69.24701c0 -141.35374 95.78592 -260.87234 226.68979 -295.02814zm66.41406 -75.87507c-192.5607 0 -358.5558 169.79018 -358.5558 370.90323c-0.96213543 156.50739 97.68347 295.93683 244.72983 349.06805l0 -71.14453c-65.451935 -29.39862 -118.58318 -80.632324 -149.8793 -145.1221l192.5607 -111.95517l4.7304993 -6.6280212l66.41406 -98.64563l0 -286.47583zm43.643555 0l0 719.97125c193.4961 -6.654724 348.10596 -165.05963 348.10596 -359.5179c0 -74.93967 -21.80841 -144.18669 -61.65686 -202.04845l-55.002075 32.258255c34.155823 49.336166 53.104553 109.09549 53.104553 169.79019c0 79.69687 -32.231567 155.57193 -89.1579 210.60074l0 -506.5643c-19.910889 -13.282818 -41.74597 -25.603497 -63.554382 -36.026627l0 590.96497c-21.80841 12.320679 -44.57895 20.872986 -68.28491 27.501038l0 -639.339c-19.937592 -4.757225 -41.74597 -6.65477 -63.554382 -7.5901794z" fill-rule="evenodd"/></g></svg>