<svg xmlns="http://www.w3.org/2000/svg" fill="none" stroke-linecap="square" stroke-miterlimit="10" viewBox="0 0 751 721">
    <path fill="currentColor" fill-rule="evenodd" d="M293.1 75.9v191.62l-50.27 74.94L74 440.17c-4.75-22.77-7.59-45.54-7.59-69.25 0-141.35 95.79-260.87 226.7-295.02zM359.52.02C166.96.02.96 169.82.96 370.92 0 527.43 98.65 666.86 245.7 720v-71.14c-65.45-29.4-118.58-80.64-149.88-145.12l192.56-111.96 4.73-6.63 66.42-98.64V.02zm43.64 0v719.97c193.5-6.65 348.1-165.06 348.1-359.52 0-74.94-21.8-144.18-61.65-202.04l-55 32.25a299.88 299.88 0 0 1 53.1 169.8c0 79.7-32.23 155.57-89.16 210.6V64.5A520.29 520.29 0 0 0 535 28.48v590.97c-21.8 12.32-44.58 20.87-68.28 27.5V7.61C446.78 2.85 424.97.96 403.16.02z"/>
</svg>